<svg width="30" height="30" viewBox="0 0 30 30" fill="none" xmlns="http://www.w3.org/2000/svg">
<path d="M28 28C28 22.969 22.1735 18.9 15 18.9C7.82654 18.9 2 22.969 2 28M15 15C17.0069 15 18.9316 14.3152 20.3506 13.0962C21.7697 11.8772 22.5669 10.2239 22.5669 8.5C22.5669 6.77609 21.7697 5.12279 20.3506 3.90381C18.9316 2.68482 17.0069 2 15 2C12.9931 2 11.0684 2.68482 9.64937 3.90381C8.23029 5.12279 7.43306 6.77609 7.43306 8.5C7.43306 10.2239 8.23029 11.8772 9.64937 13.0962C11.0684 14.3152 12.9931 15 15 15Z" stroke="#747474" stroke-width="3.20833" stroke-linecap="round" stroke-linejoin="round"/>
</svg>
