<svg width="26" height="26" viewBox="0 0 26 26" fill="none" xmlns="http://www.w3.org/2000/svg">
<path d="M1.51667 26C1.08333 26 0.722222 25.8556 0.433333 25.5667C0.144444 25.2778 0 24.9167 0 24.4833V18.6333C0 18.2963 0.108333 18.0011 0.325 17.7479C0.541667 17.4956 0.818518 17.3333 1.15556 17.2611L6.13889 16.25C6.47593 16.2019 6.81922 16.2317 7.16878 16.3396C7.51737 16.4484 7.8 16.6111 8.01667 16.8278L11.4111 20.2222C13.2407 19.1148 14.9139 17.8028 16.4306 16.2861C17.9472 14.7694 19.2111 13.1444 20.2222 11.4111L16.7556 7.87222C16.5389 7.65556 16.4002 7.40856 16.3396 7.13122C16.2799 6.85485 16.2741 6.54815 16.3222 6.21111L17.2611 1.15556C17.3093 0.818518 17.4657 0.541667 17.7306 0.325C17.9954 0.108333 18.2963 0 18.6333 0H24.4833C24.9167 0 25.2778 0.144444 25.5667 0.433333C25.8556 0.722222 26 1.08333 26 1.51667C26 4.62222 25.3076 7.6493 23.9229 10.5979C22.5391 13.5474 20.7095 16.1595 18.434 18.434C16.1595 20.7095 13.5479 22.5391 10.5993 23.9229C7.64978 25.3076 4.62222 26 1.51667 26Z" fill="#747474"/>
</svg>
