<svg width="42" height="41" viewBox="0 0 42 41" fill="none" xmlns="http://www.w3.org/2000/svg">
<path d="M15.3852 38.7297H26.5644C35.8804 38.7297 39.6068 35.1059 39.6068 26.0464V15.175C39.6068 6.1155 35.8804 2.4917 26.5644 2.4917H15.3852C6.06917 2.4917 2.34277 6.1155 2.34277 15.175V26.0464C2.34277 35.1059 6.06917 38.7297 15.3852 38.7297Z" stroke="#EEEEEE" stroke-width="4.27778" stroke-linecap="round" stroke-linejoin="round"/>
<path d="M20.9748 26.9528C21.8312 26.9528 22.6792 26.7888 23.4704 26.4701C24.2616 26.1514 24.9804 25.6843 25.586 25.0954C26.1915 24.5065 26.6719 23.8074 26.9996 23.038C27.3273 22.2686 27.496 21.444 27.496 20.6112C27.496 19.7784 27.3273 18.9537 26.9996 18.1843C26.6719 17.4149 26.1915 16.7158 25.586 16.127C24.9804 15.5381 24.2616 15.071 23.4704 14.7523C22.6792 14.4336 21.8312 14.2695 20.9748 14.2695C19.2453 14.2695 17.5866 14.9377 16.3636 16.127C15.1407 17.3162 14.4536 18.9293 14.4536 20.6112C14.4536 22.2931 15.1407 23.9061 16.3636 25.0954C17.5866 26.2847 19.2453 26.9528 20.9748 26.9528V26.9528Z" stroke="#EEEEEE" stroke-width="4.27778" stroke-linecap="round" stroke-linejoin="round"/>
<path d="M31.4775 11.5513H31.5008" stroke="#EEEEEE" stroke-width="4.27778" stroke-linecap="round" stroke-linejoin="round"/>
</svg>
