<svg width="150" height="52" viewBox="0 0 150 52" fill="none" xmlns="http://www.w3.org/2000/svg">
<path d="M12.8065 51.6221C10.1679 51.6159 7.54416 51.2294 5.01747 50.4746C3.88066 50.143 2.7866 49.6812 1.75738 49.0985C1.13186 48.7851 0.627367 48.2764 0.321496 47.6506C0.0524266 47.0932 -0.0509537 46.4713 0.0234822 45.8576C0.093729 45.2598 0.333277 44.6941 0.714333 44.226C1.08988 43.7674 1.61276 43.4509 2.19537 43.3295C2.88466 43.2035 3.59662 43.3242 4.20471 43.6702C5.5017 44.3861 6.89641 44.9115 8.34529 45.2301C9.80829 45.5657 11.3049 45.7356 12.8065 45.7366C15.0551 45.7366 16.6581 45.3929 17.6153 44.7056C18.0522 44.425 18.4119 44.0408 18.6618 43.5877C18.9116 43.1346 19.0439 42.6268 19.0467 42.1102C19.0664 41.6979 18.9842 41.287 18.8071 40.9135C18.63 40.54 18.3634 40.2153 18.0307 39.9676C17.3534 39.4476 16.1674 38.9994 14.4726 38.6228L9.24385 37.5381C6.28478 36.9404 4.08881 35.8945 2.65594 34.4003C1.22306 32.9062 0.506626 30.9533 0.506626 28.5417C0.488681 27.0935 0.821633 25.6622 1.47743 24.3685C2.13362 23.1 3.0577 21.9869 4.18665 21.1052C5.43868 20.151 6.85784 19.4352 8.37239 18.9939C10.1068 18.4898 11.9069 18.2436 13.7141 18.2633C15.4347 18.2664 17.1485 18.4802 18.8164 18.8998C20.3681 19.2604 21.8514 19.8658 23.2099 20.6928C23.7782 21.0088 24.2257 21.5019 24.4832 22.0958C24.7098 22.632 24.7893 23.2182 24.7135 23.7947C24.6403 24.3497 24.3976 24.869 24.0181 25.2829C23.6398 25.7076 23.1327 25.9986 22.5732 26.1122C21.838 26.207 21.0917 26.0623 20.4465 25.6998C19.4203 25.1751 18.3286 24.7877 17.1999 24.5478C16.0451 24.3044 14.8676 24.1827 13.687 24.1847C12.564 24.1575 11.4451 24.3275 10.3817 24.6867C9.5669 24.9561 8.84637 25.4506 8.30466 26.1122C7.82729 26.713 7.57225 27.4583 7.5822 28.2234C7.57082 28.6343 7.65445 29.0422 7.82665 29.416C7.99885 29.7898 8.25506 30.1194 8.57558 30.3795C9.21977 30.9324 10.3441 31.3806 11.9486 31.7243L17.1548 32.7956C20.165 33.45 22.4227 34.496 23.9278 35.9333C25.4043 37.3543 26.1449 39.2325 26.1449 41.5544C26.1741 42.9904 25.8649 44.4134 25.2418 45.7097C24.6131 46.9682 23.6941 48.0616 22.5597 48.9012C21.2971 49.8353 19.8698 50.527 18.3513 50.9408C16.5456 51.4309 14.6781 51.6603 12.8065 51.6221Z" fill="#EEEEEE"/>
<path d="M34.3988 51.5415C33.9088 51.5746 33.4173 51.506 32.9555 51.3401C32.4937 51.1741 32.0718 50.9145 31.7167 50.5777C31.0746 49.832 30.7507 48.8672 30.8136 47.8882V22.3918C30.8136 21.1964 31.1297 20.2999 31.7619 19.7022C32.132 19.3835 32.5617 19.1402 33.0266 18.9864C33.4915 18.8326 33.9823 18.7712 34.4711 18.8057H45.7098C49.3432 18.8057 52.1472 19.7157 54.1219 21.5356C56.0966 23.3555 57.084 25.8956 57.084 29.1559C57.084 32.4012 56.0966 34.9413 54.1219 36.7761C52.1472 38.611 49.3432 39.5284 45.7098 39.5284H37.9569V47.9286C38.0123 48.9066 37.6893 49.8687 37.0539 50.6181C36.701 50.9478 36.2824 51.2004 35.825 51.3595C35.3677 51.5185 34.8818 51.5805 34.3988 51.5415ZM37.9569 33.9611H44.4771C46.3284 33.9611 47.7387 33.5472 48.708 32.7194C49.6773 31.8917 50.1635 30.6829 50.1665 29.0931C50.1665 27.5003 49.6803 26.305 48.708 25.5071C47.7357 24.7092 46.3254 24.3118 44.4771 24.3147H37.9569V33.9611Z" fill="#EEEEEE"/>
<path d="M87.626 51.5419C87.1734 51.5719 86.7195 51.5076 86.2934 51.3532C85.8673 51.1988 85.4784 50.9577 85.1516 50.6454C84.546 49.9383 84.2401 49.0257 84.2982 48.0993V21.935C84.2309 20.9719 84.5362 20.0197 85.1516 19.2723C85.4465 18.9692 85.8035 18.7324 86.1984 18.5777C86.5933 18.4231 87.017 18.3542 87.4409 18.3758C88.1159 18.3331 88.7874 18.5025 89.3599 18.86C89.9441 19.3174 90.4649 19.8494 90.9087 20.4423L107.137 40.9587H105.891V21.7512C105.834 20.8387 106.141 19.9406 106.744 19.2499C107.438 18.6664 108.318 18.3462 109.228 18.3462C110.137 18.3462 111.017 18.6664 111.711 19.2499C112.314 19.9406 112.621 20.8387 112.564 21.7512V48.2338C112.612 49.1064 112.332 49.9655 111.779 50.6454C111.514 50.943 111.186 51.178 110.818 51.3331C110.45 51.4882 110.051 51.5596 109.652 51.5419C108.932 51.5783 108.217 51.4021 107.597 51.0354C106.971 50.5857 106.417 50.0446 105.954 49.4306L89.7528 28.9097H90.9539V48.0993C91.015 49.0223 90.7177 49.9334 90.123 50.6454C89.7943 50.9616 89.4018 51.2049 88.9714 51.3595C88.541 51.514 88.0824 51.5762 87.626 51.5419Z" fill="#EEEEEE"/>
<path d="M120.037 51.5418C119.289 51.5738 118.551 51.3646 117.933 50.9457C117.402 50.556 117.039 49.981 116.917 49.3365C116.795 48.5668 116.933 47.7787 117.31 47.0952L129.136 21.3387C129.513 20.4428 130.118 19.6596 130.892 19.0661C131.589 18.6013 132.41 18.353 133.249 18.353C134.089 18.353 134.909 18.6013 135.606 19.0661C136.374 19.6557 136.965 20.4412 137.318 21.3387L149.247 47.0862C149.629 47.78 149.786 48.5733 149.699 49.3589C149.659 49.6768 149.554 49.9834 149.391 50.2601C149.228 50.5367 149.01 50.7776 148.75 50.9681C148.153 51.3716 147.44 51.5728 146.719 51.5418C145.846 51.5968 144.983 51.3356 144.289 50.8067C143.618 50.1657 143.104 49.3806 142.786 48.5117L140.013 42.1286L142.881 44.1054H123.6L126.467 42.1286L123.758 48.5117C123.43 49.372 122.935 50.1596 122.299 50.8291C121.667 51.3494 120.856 51.605 120.037 51.5418ZM133.168 26.3412L127.253 40.3401L126.002 38.5471H140.474L139.228 40.3401L133.263 26.3412H133.168Z" fill="#EEEEEE"/>
<path d="M78.5186 8.33506C79.8416 0.970297 72.9376 2.93812 67.1669 2.27022C58.8135 0.203789 54.8987 -0.284805 56.0637 7.60441C56.5152 10.7646 60.8906 14.6733 67.4604 14.6913C74.4999 14.9602 76.9156 14.0861 78.5186 8.33506Z" fill="#EEEEEE"/>
<path d="M70.1472 29.1113C75.7101 28.4837 77.9182 25.9735 78.153 22.5041C78.6767 16.3989 73.0777 19.057 68.463 19.2229C60.1457 18.1336 58.9446 18.4878 60.227 25.095C60.7146 27.6052 64.9862 29.8823 70.1472 29.1113Z" fill="#EEEEEE"/>
<path d="M73.2448 45.679C68.9732 45.1187 67.2303 44.8991 67.727 48.3058C68.1785 51.3763 70.5175 52.1159 73.9717 51.8918C77.0196 51.6587 78.5729 50.4753 78.8754 48.2699C79.1418 45.1411 77.5434 44.7825 73.2448 45.679Z" fill="#EEEEEE"/>
<path d="M72.5583 41.0213C76.297 40.219 77.927 38.4215 77.918 35.6871C77.7058 31.8187 75.6016 31.2315 70.1154 33.2128C64.697 33.8269 62.8186 33.558 64.11 37.5832C65.3608 41.4785 68.2416 41.6444 72.5583 41.0213Z" fill="#EEEEEE"/>
</svg>
