<svg width="24" height="24" viewBox="0 0 24 24" fill="none" xmlns="http://www.w3.org/2000/svg">
<path d="M1.44179 23.2404C1.04966 23.2404 0.722885 23.1132 0.461466 22.859C0.200046 22.6048 0.0693359 22.287 0.0693359 21.9057V16.7577C0.0693359 16.4611 0.167368 16.2014 0.363433 15.9785C0.559498 15.7565 0.810025 15.6137 1.11502 15.5501L5.62451 14.6604C5.9295 14.618 6.24015 14.6443 6.55647 14.7392C6.87191 14.8349 7.12767 14.9781 7.32374 15.1688L10.3954 18.1559C12.0511 17.1814 13.5651 16.0268 14.9376 14.6921C16.31 13.3575 17.4538 11.9275 18.3687 10.4021L15.2317 7.28791C15.0356 7.09724 14.9101 6.87988 14.8552 6.63583C14.8012 6.39262 14.796 6.12272 14.8396 5.82613L15.6892 1.37724C15.7327 1.08065 15.8743 0.837018 16.114 0.646351C16.3536 0.455685 16.6259 0.360352 16.9309 0.360352H22.2247C22.6168 0.360352 22.9436 0.487463 23.205 0.741685C23.4664 0.995907 23.5971 1.31369 23.5971 1.69502C23.5971 4.42791 22.9706 7.09173 21.7175 9.68649C20.4653 12.2821 18.8096 14.5807 16.7505 16.5823C14.6923 18.5847 12.3291 20.1948 9.66083 21.4125C6.99173 22.6311 4.25205 23.2404 1.44179 23.2404Z" fill="#EEEEEE"/>
</svg>
