<svg width="46" height="40" viewBox="0 0 46 40" fill="none" xmlns="http://www.w3.org/2000/svg">
<path d="M42.2506 0.683814C41.6727 0.709953 41.1284 0.873322 40.6445 1.05629H40.6378C40.1473 1.2458 37.8155 2.19988 34.2742 3.64406C30.7329 5.09477 26.1366 6.97678 21.5738 8.84572C12.4618 12.5771 3.50439 16.2496 3.50439 16.2496L3.6119 16.2104C3.6119 16.2104 2.99368 16.4064 2.34859 16.8377C2.01932 17.0468 1.65645 17.3344 1.34062 17.7853C1.02479 18.2362 0.76944 18.9289 0.863518 19.6411C1.01807 20.8501 1.82445 21.5754 2.40234 21.974C2.98696 22.3792 3.54471 22.5687 3.54471 22.5687H3.55814L11.9579 25.3198C12.3342 26.4961 14.5181 33.4752 15.0422 35.0828C15.3513 36.0434 15.6537 36.6446 16.03 37.102C16.2115 37.3373 16.4265 37.5333 16.6818 37.6901C16.7826 37.749 16.8902 37.7947 16.9977 37.8339C17.0313 37.8535 17.0649 37.86 17.1052 37.8666L17.0178 37.847C17.0447 37.8535 17.0649 37.8731 17.085 37.8796C17.1522 37.8993 17.1993 37.9058 17.2866 37.9189C18.6171 38.3109 19.6856 37.5072 19.6856 37.5072L19.7461 37.4614L24.7053 33.0701L33.0176 39.2715L33.2058 39.35C34.9395 40.0884 36.6933 39.6767 37.6206 38.9513C38.5547 38.2195 38.9176 37.285 38.9176 37.285L38.978 37.1347L45.4021 5.13398C45.5836 4.34328 45.6306 3.60485 45.429 2.88603C45.2274 2.1672 44.71 1.49412 44.0851 1.13471C43.4534 0.768766 42.8285 0.657675 42.2506 0.683814ZM42.0759 4.11456C42.0691 4.21912 42.0893 4.20605 42.0423 4.40862V4.42823L35.6786 36.0957C35.6518 36.1414 35.6047 36.2394 35.477 36.3374C35.3426 36.442 35.2351 36.5073 34.6774 36.2917L24.5104 28.7114L18.3685 34.1548L19.6587 26.1432C19.6587 26.1432 35.5846 11.7079 36.27 11.0871C36.9554 10.4663 36.7269 10.3356 36.7269 10.3356C36.774 9.57762 35.6921 10.1135 35.6921 10.1135L14.7466 22.7321L14.7398 22.6994L4.70051 19.4124V19.4059C4.69378 19.4059 4.68035 19.3994 4.67363 19.3994C4.68035 19.3994 4.72738 19.3798 4.72738 19.3798L4.78114 19.3536L4.8349 19.334C4.8349 19.334 13.7991 15.6615 22.9111 11.9301C27.4738 10.0612 32.0701 8.17918 35.6047 6.72846C39.1393 5.28428 41.7533 4.22565 41.9011 4.16684C42.0423 4.11456 41.9751 4.11456 42.0759 4.11456Z" fill="#EEEEEE"/>
</svg>
