<svg width="60" height="38" viewBox="0 0 60 38" fill="none" xmlns="http://www.w3.org/2000/svg">
<path fill-rule="evenodd" clip-rule="evenodd" d="M59.2887 30.5872C57.8993 27.8658 56.0686 25.38 53.8669 23.225C53.1177 22.378 52.2392 21.542 51.5534 20.8897L51.4576 20.7986C51.1038 20.4617 50.8115 20.1822 50.5724 19.9415C53.5829 15.8706 56.1595 11.5116 58.2618 6.93155L58.3466 6.74676L58.4062 6.55282C58.6823 5.65137 59.0006 3.93715 57.8748 2.38799C56.7113 0.78678 54.8481 0.498002 53.6005 0.498002H47.8604C46.6639 0.444669 45.4789 0.759257 44.475 1.39884C43.4634 2.04324 42.6897 2.98321 42.2639 4.08198C41.0278 6.94539 39.4811 9.66899 37.6518 12.2072V5.66582C37.6518 4.82026 37.5701 3.40578 36.639 2.21191C35.5242 0.782458 33.9121 0.498002 32.793 0.498002H23.6851C22.5117 0.471621 21.3704 0.879637 20.4934 1.64132C19.5952 2.42133 19.0448 3.51091 18.9589 4.67899L18.9507 4.78963V4.90057C18.9507 6.10655 19.4421 6.99614 19.8347 7.55561C20.0105 7.80608 20.1985 8.0341 20.3173 8.1781L20.3447 8.21134C20.4713 8.36491 20.5558 8.4674 20.6407 8.57961C20.8638 8.87477 21.1847 9.32986 21.2755 10.5075V14.1665C19.7053 11.6564 18.0489 8.31607 16.8026 4.74856L16.7835 4.69381L16.7623 4.63979C16.4515 3.8483 15.9531 2.69666 14.9549 1.81538C13.7887 0.785837 12.4094 0.498002 11.1549 0.498002H5.33092C4.06185 0.498002 2.53191 0.786731 1.39035 1.95779C0.267767 3.1094 0.140625 4.4893 0.140625 5.22298V5.55369L0.212249 5.87697C1.82539 13.1582 5.14927 19.9768 9.92276 25.7996C12.0869 29.1183 15.0194 31.9003 18.487 33.9221C22.0098 35.9765 25.9842 37.1872 30.0825 37.455L30.1893 37.462H30.2966C32.1506 37.462 34.0835 37.3065 35.537 36.3645C37.4978 35.0939 37.6518 33.1423 37.6518 32.1698V29.3431C38.1551 29.7386 38.7794 30.2712 39.5436 30.9869C40.4676 31.8861 41.2033 32.6654 41.8342 33.3456L42.1709 33.7097L42.1729 33.7117C42.6629 34.2423 43.1452 34.7647 43.5843 35.194C44.1363 35.7335 44.8168 36.3282 45.6723 36.7674C46.5985 37.2431 47.5707 37.4582 48.6035 37.4582H54.4314C55.6591 37.4582 57.4201 37.1758 58.6583 35.78C60.0075 34.2587 59.9046 32.3941 59.4803 31.0542L59.4039 30.8132L59.2887 30.5872ZM44.6791 30.8495C44.0231 30.1423 43.232 29.3039 42.2322 28.3319L42.224 28.3239C38.7599 25.0759 37.1412 24.5101 35.9968 24.5101C35.3881 24.5101 34.7145 24.5766 34.2774 25.106C34.071 25.3559 33.9627 25.6575 33.9019 25.9717C33.8411 26.2855 33.8202 26.6539 33.8202 27.0734V32.1698C33.8202 32.8028 33.7131 33.0686 33.4122 33.2638C33.0112 33.5237 32.1542 33.7343 30.318 33.7358C26.8327 33.5048 23.4535 32.4736 20.4573 30.7266C17.4551 28.976 14.9234 26.5567 13.0709 23.6682L13.0507 23.6369L13.0269 23.6078C8.57889 18.224 5.47948 11.9084 3.97305 5.16008C3.98123 4.83476 4.0537 4.64177 4.17112 4.52129C4.29213 4.39716 4.58533 4.22417 5.33092 4.22417H11.1549C11.8028 4.22417 12.1381 4.36122 12.3794 4.57425C12.653 4.81578 12.8902 5.22594 13.1785 5.95828C14.608 10.0471 16.5411 13.8709 18.3717 16.6824C19.2866 18.0876 20.1871 19.2574 20.9984 20.0839C21.4034 20.4967 21.8005 20.8385 22.1796 21.0817C22.5464 21.317 22.9624 21.5026 23.3901 21.5026C23.6158 21.5026 23.8798 21.4799 24.134 21.3704C24.4074 21.2529 24.6196 21.0567 24.7695 20.7936C25.0346 20.3286 25.1072 19.6397 25.1072 18.7372V10.3814L25.1059 10.3618C24.9735 8.32896 24.3424 7.18545 23.7278 6.37253C23.5932 6.19437 23.4603 6.03345 23.3441 5.89262L23.3123 5.85404C23.1847 5.69928 23.0831 5.57423 22.9997 5.45532C22.8468 5.23744 22.7876 5.08553 22.7827 4.92275C22.8027 4.72954 22.8963 4.55026 23.0457 4.42054C23.2007 4.2859 23.4036 4.2158 23.6112 4.22417H32.793C33.3195 4.22417 33.4968 4.34907 33.5859 4.46349C33.7119 4.625 33.8202 4.96093 33.8202 5.66582V16.9154C33.8202 18.2516 34.4537 19.1563 35.3735 19.1563C36.4321 19.1563 37.1951 18.5318 38.5295 17.2341L38.5518 17.2125L38.5717 17.1886C41.5624 13.6421 44.0068 9.6908 45.826 5.459L45.8375 5.42727C45.9745 5.05334 46.2332 4.73321 46.5747 4.5157C46.916 4.29822 47.3212 4.1953 47.7283 4.2227L47.7506 4.22417H53.6005C54.3982 4.22417 54.6608 4.42163 54.7456 4.53841C54.8358 4.66264 54.8986 4.92891 54.7454 5.4511C52.6479 10.0129 50.0541 14.3431 47.0095 18.3688L46.9904 18.3972C46.6948 18.8369 46.3706 19.3232 46.3236 19.8817C46.2733 20.4813 46.5403 21.0266 47.007 21.6109C47.3472 22.1 48.0489 22.768 48.7608 23.4456L48.828 23.5095C49.5744 24.2199 50.3829 24.9895 51.032 25.7347L51.0494 25.7544L51.0683 25.7727C53.0033 27.6497 54.6123 29.8196 55.8326 32.1974C56.0275 32.8448 55.9082 33.1756 55.7567 33.3463C55.5797 33.546 55.1827 33.7321 54.4314 33.7321H48.6035C48.1483 33.7321 47.797 33.6449 47.4614 33.4725C47.1117 33.2929 46.752 33.0072 46.3009 32.5663C45.9377 32.2111 45.5407 31.7813 45.0564 31.2574C44.9363 31.1275 44.8109 30.9914 44.6791 30.8495Z" fill="#EEEEEE"/>
</svg>
