<svg width="38" height="37" viewBox="0 0 38 37" fill="none" xmlns="http://www.w3.org/2000/svg">
<path fill-rule="evenodd" clip-rule="evenodd" d="M31.8345 5.78423C30.1157 4.10174 28.0706 2.76765 25.8178 1.85926C23.565 0.950861 21.1493 0.486218 18.7105 0.492245C8.4841 0.492245 0.159142 8.58599 0.155008 18.5348C0.155008 21.7145 1.00858 24.8177 2.631 27.5551L0 36.903L9.83577 34.3927C12.5565 35.833 15.6045 36.5882 18.7022 36.5895H18.7105C28.9348 36.5895 37.2598 28.4958 37.2639 18.5469C37.2709 16.1762 36.7947 13.8277 35.8628 11.6371C34.9309 9.44647 33.5617 7.45719 31.8345 5.78423ZM18.7105 33.5445H18.7043C15.9421 33.5448 13.2307 32.8221 10.8547 31.4523L10.2925 31.1267L4.45596 32.616L6.01224 27.0828L5.64642 26.516C4.1021 24.1251 3.28458 21.3583 3.28824 18.5348C3.29237 10.2662 10.2099 3.53921 18.7167 3.53921C20.7426 3.53483 22.7494 3.92125 24.6207 4.67609C26.4921 5.43094 28.1909 6.53922 29.6189 7.9368C31.0545 9.32771 32.1924 10.9815 32.9669 12.8027C33.7413 14.6238 34.1368 16.5762 34.1307 18.5469C34.1265 26.8155 27.2091 33.5445 18.7105 33.5445ZM27.1698 22.3114C26.7048 22.0843 24.4272 20.9949 24.0014 20.8442C23.5777 20.6934 23.2698 20.6191 22.9598 21.0693C22.6498 21.5195 21.761 22.5345 21.4903 22.836C21.2196 23.1374 20.9488 23.1736 20.4858 22.9485C20.0229 22.7234 18.5286 22.2471 16.7574 20.7115C15.3789 19.5157 14.4488 18.0404 14.1781 17.5882C13.9073 17.136 14.1491 16.8928 14.3827 16.6677C14.5914 16.4667 14.8456 16.1411 15.0771 15.8778C15.3086 15.6145 15.3851 15.4276 15.5401 15.1261C15.6951 14.8246 15.6186 14.5613 15.5008 14.3362C15.3851 14.1091 14.4571 11.8902 14.0706 10.9878C13.6965 10.1135 13.3141 10.2301 13.0289 10.218C12.7335 10.2063 12.4379 10.2009 12.1423 10.2019C11.9072 10.2077 11.6759 10.2607 11.4629 10.3576C11.2498 10.4544 11.0597 10.593 10.9043 10.7647C10.4785 11.2169 9.28188 12.3063 9.28188 14.5252C9.28188 16.744 10.9436 18.8886 11.175 19.1901C11.4065 19.4915 14.4447 24.0439 19.0949 25.9975C20.2027 26.4618 21.0666 26.7391 21.7383 26.9482C22.8482 27.2918 23.8588 27.2416 24.6587 27.127C25.5494 26.9984 27.4013 26.0377 27.7878 24.9845C28.1742 23.9313 28.1742 23.0289 28.0585 22.84C27.9428 22.6511 27.6307 22.5365 27.1698 22.3114Z" fill="#EEEEEE"/>
</svg>
